<mxfile host="app.diagrams.net" modified="2024-01-17T11:54:31.635Z" agent="Mozilla/5.0 (Windows NT 10.0; Win64; x64; rv:121.0) Gecko/20100101 Firefox/121.0" etag="0F1ubgKSlxuGpJdCSixO" version="22.1.20" type="github">
  <diagram name="Seite-1" id="IBqcnsN6eLZTh5Qhn7dX">
    <mxGraphModel dx="1434" dy="782" grid="1" gridSize="10" guides="1" tooltips="1" connect="1" arrows="1" fold="1" page="1" pageScale="1" pageWidth="1169" pageHeight="827" math="0" shadow="0">
      <root>
        <mxCell id="0" />
        <mxCell id="1" parent="0" />
        <mxCell id="aK3b99Qzdh7lHUsJJeN6-1" value="-" style="ellipse;whiteSpace=wrap;html=1;aspect=fixed;fontSize=40;" vertex="1" parent="1">
          <mxGeometry x="160" y="80" width="80" height="80" as="geometry" />
        </mxCell>
        <mxCell id="aK3b99Qzdh7lHUsJJeN6-3" value="A" style="ellipse;whiteSpace=wrap;html=1;aspect=fixed;fontSize=44;" vertex="1" parent="1">
          <mxGeometry x="480" y="80" width="80" height="80" as="geometry" />
        </mxCell>
        <mxCell id="aK3b99Qzdh7lHUsJJeN6-4" value="φ" style="ellipse;whiteSpace=wrap;html=1;aspect=fixed;fontSize=44;" vertex="1" parent="1">
          <mxGeometry x="320" y="80" width="80" height="80" as="geometry" />
        </mxCell>
        <mxCell id="aK3b99Qzdh7lHUsJJeN6-6" value="" style="endArrow=classic;html=1;rounded=0;curved=1;entryX=0;entryY=0.5;entryDx=0;entryDy=0;exitX=1;exitY=0.5;exitDx=0;exitDy=0;" edge="1" parent="1" source="aK3b99Qzdh7lHUsJJeN6-4" target="aK3b99Qzdh7lHUsJJeN6-3">
          <mxGeometry width="50" height="50" relative="1" as="geometry">
            <mxPoint x="400" y="120" as="sourcePoint" />
            <mxPoint x="470" y="130" as="targetPoint" />
          </mxGeometry>
        </mxCell>
        <mxCell id="aK3b99Qzdh7lHUsJJeN6-8" value="B" style="ellipse;whiteSpace=wrap;html=1;aspect=fixed;fontSize=44;" vertex="1" parent="1">
          <mxGeometry x="640" y="80" width="80" height="80" as="geometry" />
        </mxCell>
        <mxCell id="aK3b99Qzdh7lHUsJJeN6-9" value="" style="endArrow=classic;html=1;rounded=0;curved=1;entryX=0;entryY=0.5;entryDx=0;entryDy=0;exitX=1;exitY=0.5;exitDx=0;exitDy=0;" edge="1" parent="1" target="aK3b99Qzdh7lHUsJJeN6-8">
          <mxGeometry width="50" height="50" relative="1" as="geometry">
            <mxPoint x="560" y="120" as="sourcePoint" />
            <mxPoint x="630" y="130" as="targetPoint" />
          </mxGeometry>
        </mxCell>
        <mxCell id="aK3b99Qzdh7lHUsJJeN6-10" value="C" style="ellipse;whiteSpace=wrap;html=1;aspect=fixed;fontSize=44;" vertex="1" parent="1">
          <mxGeometry x="480" y="240" width="80" height="80" as="geometry" />
        </mxCell>
        <mxCell id="aK3b99Qzdh7lHUsJJeN6-11" value="" style="endArrow=classic;html=1;rounded=0;curved=1;entryX=0.5;entryY=0;entryDx=0;entryDy=0;exitX=0.5;exitY=1;exitDx=0;exitDy=0;" edge="1" parent="1" target="aK3b99Qzdh7lHUsJJeN6-10" source="aK3b99Qzdh7lHUsJJeN6-3">
          <mxGeometry width="50" height="50" relative="1" as="geometry">
            <mxPoint x="520" y="200" as="sourcePoint" />
            <mxPoint x="470" y="290" as="targetPoint" />
          </mxGeometry>
        </mxCell>
        <mxCell id="aK3b99Qzdh7lHUsJJeN6-15" value="" style="endArrow=classic;html=1;rounded=0;curved=1;exitX=0;exitY=1;exitDx=0;exitDy=0;entryX=1;entryY=0;entryDx=0;entryDy=0;" edge="1" parent="1" source="aK3b99Qzdh7lHUsJJeN6-8" target="aK3b99Qzdh7lHUsJJeN6-10">
          <mxGeometry width="50" height="50" relative="1" as="geometry">
            <mxPoint x="650" y="150" as="sourcePoint" />
            <mxPoint x="540" y="260" as="targetPoint" />
          </mxGeometry>
        </mxCell>
        <mxCell id="aK3b99Qzdh7lHUsJJeN6-16" value="D" style="ellipse;whiteSpace=wrap;html=1;aspect=fixed;fontSize=44;" vertex="1" parent="1">
          <mxGeometry x="640" y="240" width="80" height="80" as="geometry" />
        </mxCell>
        <mxCell id="aK3b99Qzdh7lHUsJJeN6-17" value="" style="endArrow=classic;html=1;rounded=0;curved=1;entryX=0;entryY=0.5;entryDx=0;entryDy=0;exitX=1;exitY=0.5;exitDx=0;exitDy=0;" edge="1" parent="1" target="aK3b99Qzdh7lHUsJJeN6-16">
          <mxGeometry width="50" height="50" relative="1" as="geometry">
            <mxPoint x="560" y="280" as="sourcePoint" />
            <mxPoint x="630" y="290" as="targetPoint" />
          </mxGeometry>
        </mxCell>
        <mxCell id="aK3b99Qzdh7lHUsJJeN6-18" value="" style="endArrow=classic;html=1;rounded=0;curved=1;entryX=0.5;entryY=0;entryDx=0;entryDy=0;exitX=0.5;exitY=1;exitDx=0;exitDy=0;" edge="1" parent="1">
          <mxGeometry width="50" height="50" relative="1" as="geometry">
            <mxPoint x="679.66" y="160" as="sourcePoint" />
            <mxPoint x="679.66" y="240" as="targetPoint" />
          </mxGeometry>
        </mxCell>
        <mxCell id="aK3b99Qzdh7lHUsJJeN6-19" value="" style="endArrow=classic;html=1;rounded=0;curved=1;exitX=1;exitY=0;exitDx=0;exitDy=0;entryX=0;entryY=1;entryDx=0;entryDy=0;" edge="1" parent="1" source="aK3b99Qzdh7lHUsJJeN6-10" target="aK3b99Qzdh7lHUsJJeN6-8">
          <mxGeometry width="50" height="50" relative="1" as="geometry">
            <mxPoint x="662" y="158" as="sourcePoint" />
            <mxPoint x="558" y="262" as="targetPoint" />
          </mxGeometry>
        </mxCell>
        <mxCell id="aK3b99Qzdh7lHUsJJeN6-20" value="" style="endArrow=classic;html=1;rounded=0;curved=1;entryX=0;entryY=0.5;entryDx=0;entryDy=0;exitX=1;exitY=0.5;exitDx=0;exitDy=0;" edge="1" parent="1">
          <mxGeometry width="50" height="50" relative="1" as="geometry">
            <mxPoint x="240" y="119.5" as="sourcePoint" />
            <mxPoint x="320" y="119.5" as="targetPoint" />
          </mxGeometry>
        </mxCell>
        <mxCell id="aK3b99Qzdh7lHUsJJeN6-21" value="ψ" style="ellipse;whiteSpace=wrap;html=1;aspect=fixed;fontSize=44;" vertex="1" parent="1">
          <mxGeometry x="640" y="400" width="80" height="80" as="geometry" />
        </mxCell>
        <mxCell id="aK3b99Qzdh7lHUsJJeN6-22" value="" style="endArrow=classic;html=1;rounded=0;curved=1;entryX=0.5;entryY=0;entryDx=0;entryDy=0;exitX=1;exitY=0.5;exitDx=0;exitDy=0;" edge="1" parent="1" target="aK3b99Qzdh7lHUsJJeN6-21">
          <mxGeometry width="50" height="50" relative="1" as="geometry">
            <mxPoint x="680" y="320" as="sourcePoint" />
            <mxPoint x="760" y="320" as="targetPoint" />
          </mxGeometry>
        </mxCell>
        <mxCell id="aK3b99Qzdh7lHUsJJeN6-23" value="" style="endArrow=classic;html=1;rounded=0;curved=1;exitX=0;exitY=0.5;exitDx=0;exitDy=0;entryX=0.5;entryY=1;entryDx=0;entryDy=0;" edge="1" parent="1" source="aK3b99Qzdh7lHUsJJeN6-21" target="aK3b99Qzdh7lHUsJJeN6-1">
          <mxGeometry width="50" height="50" relative="1" as="geometry">
            <mxPoint x="500" y="310" as="sourcePoint" />
            <mxPoint x="540" y="310" as="targetPoint" />
          </mxGeometry>
        </mxCell>
      </root>
    </mxGraphModel>
  </diagram>
</mxfile>
